<?xml version="1.0" encoding="UTF-8"?><!DOCTYPE svg PUBLIC "-//W3C//DTD SVG 1.1//EN" "http://www.w3.org/Graphics/SVG/1.1/DTD/svg11.dtd"><svg xmlns="http://www.w3.org/2000/svg" xmlns:xlink="http://www.w3.org/1999/xlink"><defs>
    <style>
      .cls-1 {
        fill: #ff5548;
      }

      .cls-2 {
        fill: #fff;
        fill-rule: evenodd;
      }
    </style>
  
    <style>
      .cls-1 {
        fill: #ff5548;
      }

      .cls-2 {
        fill: #fff;
        fill-rule: evenodd;
      }
    </style>
  </defs><symbol id="svg_baloon-counter" viewBox="0 0 120.862 146.094">
<path style="fill:#FF5548;" d="M120.862,60.431C120.862,27.056,93.806,0,60.431,0C27.056,0,0,27.056,0,60.431
	c0,31.962,24.819,58.112,56.233,60.27l-7.302,25.393h23l-6.705-25.438C96.357,118.209,120.862,92.191,120.862,60.431z"/>
<g>
</g>
<g>
</g>
<g>
</g>
<g>
</g>
<g>
</g>
<g>
</g>
<g>
</g>
<g>
</g>
<g>
</g>
<g>
</g>
<g>
</g>
<g>
</g>
<g>
</g>
<g>
</g>
<g>
</g>
</symbol><symbol id="svg_bucket" viewBox="0 0 35 35">
  
  <g>
    <circle cx="17.5" cy="17.5" r="17.5" class="cls-1"/>
    <path d="M28.522,16.917 C28.290,17.701 27.413,20.658 26.491,23.571 C25.415,26.969 23.145,27.000 23.145,27.000 C23.145,27.000 15.648,27.000 12.691,27.000 C9.734,27.000 8.927,24.428 8.927,24.428 L6.730,17.059 C6.303,16.887 6.000,16.463 6.000,15.964 L6.000,15.750 C6.000,15.099 6.515,14.571 7.150,14.571 L9.692,14.571 C9.697,14.516 9.712,14.464 9.743,14.421 L14.434,7.960 C14.389,7.815 14.364,7.660 14.364,7.500 C14.364,6.671 15.019,6.000 15.827,6.000 C16.636,6.000 17.291,6.671 17.291,7.500 C17.291,8.328 16.636,9.000 15.827,9.000 C15.807,9.000 15.787,8.998 15.766,8.997 L11.719,14.571 L23.599,14.571 L19.702,8.994 C19.665,8.997 19.628,9.000 19.591,9.000 C18.783,9.000 18.127,8.328 18.127,7.500 C18.127,6.671 18.783,6.000 19.591,6.000 C20.399,6.000 21.054,6.671 21.054,7.500 C21.054,7.651 21.032,7.796 20.992,7.934 L25.511,14.402 C25.545,14.450 25.561,14.508 25.563,14.571 L27.850,14.571 C28.485,14.571 29.000,15.099 29.000,15.750 L29.000,15.964 C29.000,16.357 28.810,16.703 28.522,16.917 ZM8.718,17.357 L10.600,23.571 C10.600,23.571 10.899,25.071 12.482,25.071 C14.065,25.071 23.145,25.071 23.145,25.071 C23.145,25.071 23.982,25.377 24.818,23.357 C25.654,21.337 26.909,17.357 26.909,17.357 L8.718,17.357 ZM23.145,24.214 L22.936,24.214 C22.590,24.214 22.372,23.933 22.449,23.585 L23.596,18.442 C23.677,18.080 24.030,17.786 24.385,17.786 L24.599,17.786 C24.953,17.786 25.174,18.080 25.091,18.442 L23.916,23.585 C23.837,23.933 23.492,24.214 23.145,24.214 ZM20.636,24.214 L20.427,24.214 C20.081,24.214 19.840,23.865 19.889,23.444 L20.485,18.320 C20.519,18.023 20.776,17.786 21.059,17.786 L21.229,17.786 C21.512,17.786 21.724,18.023 21.702,18.320 L21.321,23.444 C21.290,23.865 20.983,24.214 20.636,24.214 ZM17.709,24.214 L17.500,24.214 C17.153,24.214 16.873,23.926 16.873,23.571 L16.873,18.428 C16.873,18.073 17.153,17.786 17.500,17.786 L17.709,17.786 C18.055,17.786 18.336,18.073 18.336,18.428 L18.336,23.571 C18.336,23.926 18.055,24.214 17.709,24.214 ZM15.032,24.214 L14.823,24.214 C14.477,24.214 14.170,23.865 14.139,23.444 L13.758,18.320 C13.736,18.023 13.948,17.786 14.230,17.786 L14.401,17.786 C14.683,17.786 14.940,18.023 14.975,18.320 L15.569,23.444 C15.618,23.865 15.378,24.214 15.032,24.214 ZM12.310,24.214 L12.092,24.214 C11.730,24.214 11.369,23.933 11.286,23.585 L10.059,18.442 C9.973,18.080 10.203,17.786 10.573,17.786 L10.797,17.786 C11.167,17.786 11.536,18.080 11.620,18.442 L12.819,23.585 C12.900,23.933 12.672,24.214 12.310,24.214 Z" class="cls-2"/>
  </g>
</symbol><symbol id="svg_call" viewBox="0 0 38.983 38.748">
<g>
	<g>
		<path style="fill:#FFD02E;" d="M11.237,27.511c2.627,2.628,5.67,5.139,6.872,3.936c1.722-1.722,2.783-3.221,6.579-0.171
			c3.796,3.052,0.88,5.085-0.788,6.754c-1.925,1.925-9.1,0.101-16.192-6.99c-7.092-7.092-8.916-14.267-6.99-16.193
			c1.669-1.669,3.702-4.583,6.752-0.787c3.051,3.795,1.552,4.857-0.17,6.578C6.098,21.841,8.609,24.884,11.237,27.511z
			 M38.983,9.474c0,5.233-5.36,9.475-11.971,9.475c-0.661,0-1.305-0.054-1.937-0.135c-1.799,1.841-4.547,2.736-7.668,2.969
			c1.278-1.278,2.193-3.133,2.48-4.708c-2.936-1.727-4.847-4.484-4.847-7.601C15.04,4.242,20.4,0,27.011,0
			S38.983,4.241,38.983,9.474z M19.529,9.474c0,1.033,0.837,1.871,1.871,1.871c1.033,0,1.871-0.837,1.871-1.871
			S22.433,7.604,21.4,7.604C20.367,7.604,19.529,8.441,19.529,9.474z M28.882,9.474c0-1.033-0.837-1.871-1.871-1.871
			c-1.033,0-1.871,0.837-1.871,1.871s0.837,1.871,1.871,1.871C28.045,11.345,28.882,10.507,28.882,9.474z M34.494,9.474
			c0-1.033-0.837-1.871-1.871-1.871c-1.033,0-1.871,0.837-1.871,1.871s0.837,1.871,1.871,1.871
			C33.657,11.345,34.494,10.507,34.494,9.474z"/>
	</g>
</g>
<g>
</g>
<g>
</g>
<g>
</g>
<g>
</g>
<g>
</g>
<g>
</g>
<g>
</g>
<g>
</g>
<g>
</g>
<g>
</g>
<g>
</g>
<g>
</g>
<g>
</g>
<g>
</g>
<g>
</g>
</symbol><symbol id="svg_car" viewBox="0 0 39.056 27.641">
<g>
	<g>
		<g>
			<path style="fill:#FFD02E;" d="M38.831,8.553c-0.191-0.233-0.476-0.369-0.775-0.369h-3.801c-0.938-2.474-2.16-4.898-3.549-5.813
				c-4.805-3.161-17.55-3.161-22.355,0c-1.39,0.916-2.607,3.343-3.55,5.813H1c-0.302,0-0.586,0.136-0.775,0.369
				c-0.19,0.232-0.266,0.539-0.204,0.834l0.563,2.728c0.096,0.465,0.506,0.797,0.979,0.797h1.126
				c-1.087,1.254-1.614,2.833-1.621,4.413c-0.007,1.952,0.734,3.716,2.089,4.964c0.015,0.013,0.03,0.022,0.044,0.035v3.817
				c0,0.827,0.672,1.5,1.5,1.5h3.506c0.828,0,1.5-0.673,1.5-1.5v-1.534h19.641v1.534c0,0.827,0.672,1.5,1.5,1.5h3.506
				c0.826,0,1.5-0.673,1.5-1.5v-3.742c1.438-1.317,2.125-3.129,2.134-4.938c0.006-1.634-0.545-3.271-1.696-4.551h1.201
				c0.475,0,0.885-0.332,0.979-0.798l0.564-2.727C39.094,9.092,39.021,8.787,38.831,8.553z M9.998,4.876
				c3.83-2.521,15.229-2.521,19.057,0c0.744,0.488,1.701,2.461,2.578,4.877H7.422C8.297,7.338,9.254,5.366,9.998,4.876z
				 M5.512,17.701c0-1.63,1.322-2.95,2.951-2.95c1.631,0,2.951,1.32,2.951,2.95s-1.32,2.951-2.951,2.951
				C6.834,20.652,5.512,19.331,5.512,17.701z M30.631,20.652c-1.629,0-2.951-1.321-2.951-2.951s1.322-2.95,2.951-2.95
				c1.631,0,2.951,1.32,2.951,2.95S32.26,20.652,30.631,20.652z"/>
		</g>
	</g>
</g>
<g>
</g>
<g>
</g>
<g>
</g>
<g>
</g>
<g>
</g>
<g>
</g>
<g>
</g>
<g>
</g>
<g>
</g>
<g>
</g>
<g>
</g>
<g>
</g>
<g>
</g>
<g>
</g>
<g>
</g>
</symbol><symbol id="svg_color-border" viewBox="0 0 998 75.003">
<g id="&#x424;&#x438;&#x433;&#x443;&#x440;&#x430;_9_&#x43A;&#x43E;&#x43F;&#x438;&#x44F;_5">
	<g>
		<polygon style="fill-rule:evenodd;clip-rule:evenodd;fill:#33A0DB;" points="865.469,57.776 841.372,74.314 998,74.314 
			998,30.003 		"/>
	</g>
</g>
<g id="&#x424;&#x438;&#x433;&#x443;&#x440;&#x430;_9_&#x43A;&#x43E;&#x43F;&#x438;&#x44F;_4">
	<g>
		<polygon style="fill-rule:evenodd;clip-rule:evenodd;fill:#BB0418;" points="795.187,54.776 791.171,74.314 933.742,74.314 
			946,41.003 		"/>
	</g>
</g>
<g id="&#x424;&#x438;&#x433;&#x443;&#x440;&#x430;_9_&#x43A;&#x43E;&#x43F;&#x438;&#x44F;_3">
	<g>
		<polygon style="fill-rule:evenodd;clip-rule:evenodd;fill:#0A75AD;" points="719.885,48.818 616.471,57.776 579.322,74.314 
			735.95,74.314 		"/>
	</g>
</g>
<g id="&#x424;&#x438;&#x433;&#x443;&#x440;&#x430;_9_&#x43A;&#x43E;&#x43F;&#x438;&#x44F;">
	<g>
		<polygon style="fill-rule:evenodd;clip-rule:evenodd;fill:#BB0418;" points="281.127,14.363 155.624,67.423 153.616,74.314 
			288.155,74.314 		"/>
	</g>
</g>
<g id="&#x424;&#x438;&#x433;&#x443;&#x440;&#x430;_9_&#x43A;&#x43E;&#x43F;&#x438;&#x44F;_2">
	<g>
		<polygon style="fill-rule:evenodd;clip-rule:evenodd;fill:#0A75AD;" points="281.127,14.363 263.054,74.314 283.135,74.314 
			446.791,74.314 		"/>
	</g>
</g>
<g id="&#x424;&#x438;&#x433;&#x443;&#x440;&#x430;_8">
	<g>
		<polygon style="fill-rule:evenodd;clip-rule:evenodd;fill:#FF5548;" points="0,3.003 0,75.003 99,0.003 		"/>
	</g>
</g>
<g id="&#x424;&#x438;&#x433;&#x443;&#x440;&#x430;_10">
	<g>
		<path style="fill-rule:evenodd;clip-rule:evenodd;fill:#ED1E28;" d="M98,0.003c-0.355-0.355-71.895,30.898-71.895,30.898L0,74.314
			c0,0,44.183,0,88.856,0c45.677,0,91.868,0,91.868,0l101.406-59.951C282.131,14.363,98.361,0.364,98,0.003z"/>
	</g>
</g>
<g id="&#x424;&#x438;&#x433;&#x443;&#x440;&#x430;_17">
	<g>
		<polygon style="fill-rule:evenodd;clip-rule:evenodd;fill:#FF5548;" points="179.72,74.314 98,0.003 104.418,40.549 
			102.41,74.314 		"/>
	</g>
</g>
<g id="&#x424;&#x438;&#x433;&#x443;&#x440;&#x430;_10_&#x43A;&#x43E;&#x43F;&#x438;&#x44F;">
	<g>
		<polygon style="fill-rule:evenodd;clip-rule:evenodd;fill:#38AAE7;" points="280.123,14.363 426.489,74.314 577.654,74.314 
			717.877,48.818 		"/>
	</g>
</g>
<g id="&#x424;&#x438;&#x433;&#x443;&#x440;&#x430;_8_&#x43A;&#x43E;&#x43F;&#x438;&#x44F;">
	<g>
		<path style="fill-rule:evenodd;clip-rule:evenodd;fill:#FF5548;" d="M874,47.003l-169.115,0.125L685,75.003
			c0,0,205.524-0.01,206,0C891.111,75.005,874,47.003,874,47.003z"/>
	</g>
</g>
<g>
</g>
<g>
</g>
<g>
</g>
<g>
</g>
<g>
</g>
<g>
</g>
<g>
</g>
<g>
</g>
<g>
</g>
<g>
</g>
<g>
</g>
<g>
</g>
<g>
</g>
<g>
</g>
<g>
</g>
</symbol><symbol id="svg_logo" viewBox="0 0 79.533 117.348">
<g id="&#x424;&#x438;&#x433;&#x443;&#x440;&#x430;_15">
	<g>
		<path style="fill:#C6C6C6;" d="M33.194,82.877c0.369,0,0.545,0.136,0.644,0.239c0.223,0.229,0.589,0.87,0.54,2.584
			c-0.002,0.079-0.006,0.158-0.01,0.239l-1.601-3.012C32.907,82.896,33.053,82.877,33.194,82.877 M35.16,91.69l6.106,11.484
			c-0.322,1.011-0.238,2.096,0.248,2.986c0.545,0.997,1.529,1.64,2.771,1.812l1.937,0.267l-0.918-1.727l-1.797-3.379
			c0.158-0.207,0.38-0.416,0.688-0.569c0.485-0.24,1.012-0.367,1.526-0.367c0.497,0,1.209,0.125,1.777,0.72
			c0.699,0.732,1.027,2.007,0.949,3.686c-0.114,2.449-2.246,4.297-4.958,4.297c-1.508,0-4.461-0.585-7.303-4.505
			C32.438,101.224,33.819,96.378,35.16,91.69 M33.194,81.877c-0.944,0-1.836,0.531-1.836,0.531l3.503,6.589
			c0.281-1.138,0.487-2.23,0.517-3.269C35.467,82.599,34.295,81.877,33.194,81.877L33.194,81.877z M34.861,88.997
			c-1.294,5.23-4.229,11.439,0.517,17.985c2.551,3.519,5.545,4.918,8.113,4.918c3.248,0,5.817-2.237,5.957-5.25
			c0.187-4.009-1.754-5.453-3.725-5.453c-0.682,0-1.367,0.173-1.97,0.471c-0.651,0.323-1.114,0.846-1.389,1.44l2.059,3.873
			c-2.178-0.3-2.775-2.33-2.059-3.873L34.861,88.997L34.861,88.997z"/>
	</g>
</g>
<g id="&#x424;&#x438;&#x433;&#x443;&#x440;&#x430;_14">
	<g>
		<path style="fill:#D1D1D1;" d="M40.042,72.706c0.938,3.561,2.057,9.952,0.397,16.427c-2.33,9.088-6.97,12.313-10.235,12.313
			c-0.338,0-0.674-0.032-1-0.095c-2.019-0.393-3.037-1.872-3.128-3.081c-0.033-0.445,0.023-1.528,1.262-1.969
			c0.468-0.167,0.892-0.251,1.261-0.251c1.095,0,1.418,0.785,1.467,0.927l0.913,3.016l0.993-2.99L40.042,72.706 M40.067,69.456
			l-9.045,27.231c0,0-0.496-1.637-2.424-1.637c-0.45,0-0.978,0.089-1.596,0.309c-3.266,1.162-2.261,6.143,2.01,6.974
			c0.388,0.075,0.786,0.114,1.191,0.114c4.059,0,8.843-3.856,11.204-13.065C44.003,79.253,40.067,69.456,40.067,69.456
			L40.067,69.456z"/>
	</g>
</g>
<g id="&#x42D;&#x43B;&#x43B;&#x438;&#x43F;&#x441;_6_&#x43A;&#x43E;&#x43F;&#x438;&#x44F;_3">
	<g>
		<path style="fill-rule:evenodd;clip-rule:evenodd;fill:#FFAC23;" d="M42.566,53.998C39.4,39.698,27.478,29.559,15.939,31.352
			C4.399,33.144-2.389,46.189,0.778,60.489c3.166,14.299,15.088,24.438,26.628,22.646c0.78-0.121,1.537-0.298,2.272-0.519
			c-0.406,0.669-1.06,1.953-0.664,2.746c0.555,1.109,0.911,1.398,2.007,1.003c1.096-0.395,0.508-0.065,1.075-0.793
			c0.566-0.729,0.36-0.68,1.075-0.793c0.715-0.114,1.478-1.229,0.743-1.791c-0.735-0.561-0.635-0.29-0.869-0.601
			c-0.127-0.169-0.41-0.546-0.643-0.856C40.806,77.274,45.243,66.085,42.566,53.998z"/>
	</g>
</g>
<g id="&#x42D;&#x43B;&#x43B;&#x438;&#x43F;&#x441;_6_&#x43A;&#x43E;&#x43F;&#x438;&#x44F;_3_9_">
	<g>
		<path style="fill-rule:evenodd;clip-rule:evenodd;fill:#FFD02E;" d="M37.125,52.769C34.861,40.874,24.959,32.74,15.009,34.601
			C5.058,36.462-1.173,47.613,1.091,59.508c2.264,11.895,12.165,20.029,22.116,18.168S39.388,64.663,37.125,52.769z"/>
	</g>
</g>
<g id="&#x42D;&#x43B;&#x43B;&#x438;&#x43F;&#x441;_6_&#x43A;&#x43E;&#x43F;&#x438;&#x44F;_3_7_">
	<g>
		<path style="fill-rule:evenodd;clip-rule:evenodd;fill:#FBA01C;" d="M40.78,53.088c-0.932-3.298-2.368-6.286-4.167-8.861
			c0.817,1.721,1.488,3.569,1.983,5.532c3.277,13.013-2.187,25.819-11.684,30.101c-2.267,1.023-4.607,1.497-6.924,1.486
			c3.529,1.112,7.233,1.066,10.695-0.371C39.528,77.309,44.273,65.449,40.78,53.088z"/>
	</g>
</g>
<g id="&#x424;&#x438;&#x433;&#x443;&#x440;&#x430;_12_&#x43A;&#x43E;&#x43F;&#x438;&#x44F;" style="opacity:0.4392;">
	<g>
		<path style="fill-rule:evenodd;clip-rule:evenodd;fill:#FFFFFF;" d="M14.222,41.212c-2.4-3.528-10.867-0.01-11.084,8.597
			c-0.217,8.607,2.87,11.048,3.911,12.433c0,0-2.515-5.348-0.167-10.229C9.231,47.133,16.622,44.74,14.222,41.212z"/>
	</g>
</g>
<g id="&#x42D;&#x43B;&#x43B;&#x438;&#x43F;&#x441;_6_&#x43A;&#x43E;&#x43F;&#x438;&#x44F;_3_3_">
	<g>
		<path style="fill-rule:evenodd;clip-rule:evenodd;fill:#43C1BD;" d="M40.875,0.411c-11.392-2.557-22.558,7.083-24.94,21.531
			c-2.382,14.448,4.922,28.234,16.314,30.79c0.77,0.173,1.539,0.285,2.305,0.349c-0.626,0.473-1.713,1.427-1.639,2.31
			c0.103,1.233,0.326,1.632,1.491,1.666c1.165,0.034,0.497,0.126,1.294-0.344c0.798-0.47,0.587-0.5,1.294-0.344
			c0.707,0.156,1.832-0.602,1.357-1.392c-0.474-0.791-0.483-0.502-0.584-0.876c-0.055-0.203-0.178-0.658-0.279-1.031
			c9.397-0.88,17.687-9.655,19.7-21.868C59.571,16.753,52.267,2.968,40.875,0.411z"/>
	</g>
</g>
<g id="&#x42D;&#x43B;&#x43B;&#x438;&#x43F;&#x441;_6_&#x43A;&#x43E;&#x43F;&#x438;&#x44F;_3_4_">
	<g>
		<path style="fill-rule:evenodd;clip-rule:evenodd;fill:#6ECBD3;" d="M38.801,3.09c-9.941-1.912-19.884,6.172-22.21,18.055
			c-2.325,11.883,3.848,23.066,13.789,24.977s19.884-6.172,22.21-18.055C54.915,16.184,48.741,5.002,38.801,3.09z"/>
	</g>
</g>
<g id="&#x42D;&#x43B;&#x43B;&#x438;&#x43F;&#x441;_6_&#x43A;&#x43E;&#x43F;&#x438;&#x44F;_3_5_">
	<g>
		<path style="fill-rule:evenodd;clip-rule:evenodd;fill:#36B0BB;" d="M55.295,19.942c0.118,1.898,0.054,3.862-0.217,5.867
			c-1.8,13.293-11.647,23.195-22.068,23.7c-2.488,0.121-4.839-0.295-6.988-1.153c2.866,2.325,6.325,3.637,10.078,3.569
			c9.585-0.171,18.411-9.456,19.768-22.222C56.229,26.296,56.008,22.993,55.295,19.942z"/>
	</g>
</g>
<g id="&#x424;&#x438;&#x433;&#x443;&#x440;&#x430;_12_&#x43A;&#x43E;&#x43F;&#x438;&#x44F;_1_" style="opacity:0.4392;">
	<g>
		<path style="fill-rule:evenodd;clip-rule:evenodd;fill:#FFFFFF;" d="M35.608,8.947c-0.917-4.157-10.096-3.985-13.503,3.934
			c-3.406,7.92-1.446,11.318-0.995,12.986c0,0-0.345-5.891,3.654-9.567C28.764,12.623,36.525,13.104,35.608,8.947z"/>
	</g>
</g>
<g id="&#x42D;&#x43B;&#x43B;&#x438;&#x43F;&#x441;_6_&#x43A;&#x43E;&#x43F;&#x438;&#x44F;_2">
	<g>
		<path style="fill-rule:evenodd;clip-rule:evenodd;fill:#FA202B;" d="M68.825,17.402c-10.335-5.395-23.639,1.048-29.716,14.391
			c-6.077,13.343-2.625,28.534,7.71,33.929c0.699,0.365,1.412,0.671,2.135,0.929c-0.729,0.296-2.027,0.939-2.187,1.81
			c-0.223,1.218-0.112,1.66,1.005,1.992s0.447,0.249,1.34,0c0.893-0.249,0.698-0.332,1.34,0s1.926-0.111,1.675-0.996
			c-0.251-0.885-0.335-0.609-0.335-0.996c0-0.21,0-0.681,0-1.068c9.306,1.564,19.606-4.783,24.743-16.062
			C82.611,37.987,79.16,22.797,68.825,17.402z"/>
	</g>
</g>
<g id="&#x42D;&#x43B;&#x43B;&#x438;&#x43F;&#x441;_6">
	<g>
		<path style="fill-rule:evenodd;clip-rule:evenodd;fill:#FF5548;" d="M66.121,19.457c-9.102-4.399-20.818,0.854-26.17,11.734
			c-5.352,10.88-2.312,23.267,6.79,27.666c9.102,4.399,20.818-0.854,26.17-11.734C78.263,36.243,75.223,23.856,66.121,19.457z"/>
	</g>
</g>
<g id="&#x42D;&#x43B;&#x43B;&#x438;&#x43F;&#x441;_6_&#x43A;&#x43E;&#x43F;&#x438;&#x44F;">
	<g>
		<path style="fill-rule:evenodd;clip-rule:evenodd;fill:#E8051F;" d="M75.905,45.58c-5.213,12.377-17.311,19.412-27.508,17.223
			c-2.435-0.522-4.597-1.528-6.448-2.909c2.16,2.982,5.159,5.138,8.8,6.035c9.302,2.297,20.254-4.404,24.901-16.386
			c1.239-3.197,1.889-6.444,1.997-9.574C77.266,41.833,76.691,43.713,75.905,45.58z"/>
	</g>
</g>
<g id="&#x424;&#x438;&#x433;&#x443;&#x440;&#x430;_12" style="opacity:0.4392;">
	<g>
		<path style="fill-rule:evenodd;clip-rule:evenodd;fill:#FFFFFF;" d="M47.437,24.625c-5.36,6.775-4.355,10.56-4.355,12.287
			c0,0,1.206-5.778,6.03-8.302c4.824-2.524,12.194-0.066,12.395-4.317C61.708,20.042,52.797,17.851,47.437,24.625z"/>
	</g>
</g>
<g id="&#x424;&#x438;&#x433;&#x443;&#x440;&#x430;_13">
	<g>
		<path style="fill:#BABABA;" d="M53.35,69.449c1.743,1.425,3.852,4.091,3.806,8.632c-0.006,0.588-0.033,1.174-0.08,1.758
			L53.35,69.449 M57.509,86.968l8.972,25.015c-0.321,0.83-1.756,3.489-7.135,4.304c-0.266,0.04-0.521,0.061-0.756,0.061
			c-0.908,0-1.555-0.286-2.035-0.901c-1.057-1.353-1.818-4.972,0.562-14.534c1.102-4.428,0.297-7.38-2.462-8.975
			C55.778,90.626,56.756,88.918,57.509,86.968 M51.457,67.132l5.988,16.694c0.432-1.772,0.692-3.703,0.712-5.735
			C58.241,69.705,51.457,67.132,51.457,67.132L51.457,67.132z M57.445,83.826c-0.91,3.734-2.595,6.748-4.493,8.431
			c2.898,1.033,4.491,3.21,3.195,8.416c-1.52,6.105-3.574,16.676,2.444,16.676c0.284,0,0.586-0.023,0.906-0.072
			c7.119-1.079,8.04-5.313,8.04-5.313L57.445,83.826L57.445,83.826z M49.603,91.593c-1.444,0-2.178,0.58-2.178,1.139
			C47.425,92.173,48.159,91.593,49.603,91.593L49.603,91.593z M47.425,92.732c0.001,0.519,0.635,1.019,1.924,1.019
			C48.061,93.751,47.426,93.251,47.425,92.732L47.425,92.732z"/>
	</g>
</g>
<g>
</g>
<g>
</g>
<g>
</g>
<g>
</g>
<g>
</g>
<g>
</g>
<g>
</g>
<g>
</g>
<g>
</g>
<g>
</g>
<g>
</g>
<g>
</g>
<g>
</g>
<g>
</g>
<g>
</g>
</symbol><symbol id="svg_phone" viewBox="0 0 35 35">
  
  <g>
    <circle cx="17.5" cy="17.5" r="17.5" class="cls-1"/>
    <path d="M15.571,18.303 C15.571,18.303 17.075,21.061 17.930,21.687 C18.785,22.313 19.390,22.768 20.628,21.954 C21.866,21.139 23.041,20.206 24.522,21.458 C26.002,22.710 27.289,24.697 27.340,25.389 C27.391,26.082 26.951,26.859 25.191,27.599 C23.430,28.339 20.983,28.714 18.578,27.460 C16.173,26.205 14.412,24.101 12.573,21.435 C10.735,18.769 9.682,15.851 9.514,12.540 C9.346,9.230 11.549,7.464 12.872,6.659 C14.195,5.854 15.446,5.171 16.240,6.422 C17.033,7.673 18.072,9.951 18.006,10.871 C17.941,11.791 17.368,12.519 16.565,12.859 C15.762,13.198 14.206,13.388 14.286,14.769 C14.365,16.150 15.571,18.303 15.571,18.303 Z" class="cls-2"/>
  </g>
</symbol><symbol id="svg_present" viewBox="0 0 33.66 6169.122">
<g>
	<g>
		<g>
			<path style="fill:#FFD02E;" d="M20.421,6169.122h8.621c1.242,0,2.243-1.021,2.243-2.265v-18.514H20.421V6169.122z"/>
			<path style="fill:#FFD02E;" d="M2.375,6166.857c0,1.243,1.002,2.265,2.244,2.265h8.619v-20.777H2.375V6166.857z"/>
			<path style="fill:#FFD02E;" d="M31.415,6140.33H20.421v6.648h10.994c1.242,0,2.245-1.021,2.245-2.263v-2.111
				C33.659,6141.362,32.656,6140.33,31.415,6140.33z"/>
			<path style="fill:#FFD02E;" d="M0,6142.604v2.111c0,1.242,1.005,2.263,2.247,2.263h10.992v-6.648H2.247
				C1.005,6140.33,0,6141.362,0,6142.604z"/>
			<path style="fill:#FFD02E;" d="M27.116,5.388c0.417-0.51,0.862-1.373,0.605-2.664C27.386,1.043,25.617,0,23.104,0
				c-1.029,0-2.114,0.173-3.225,0.514c-0.696,0.214-1.343,0.513-1.933,0.858c-0.397-0.289-0.851-0.504-1.342-0.627
				c-0.303-0.085-0.621-0.137-0.947-0.151c-0.336,0.014-0.662,0.069-0.972,0.159c-0.48,0.124-0.923,0.337-1.313,0.621
				c-0.592-0.345-1.24-0.645-1.937-0.859c-1.111-0.341-2.196-0.514-3.225-0.514c-2.513,0-4.281,1.043-4.616,2.723
				c-0.257,1.29,0.187,2.154,0.605,2.663c0.976,1.189,2.862,1.73,5.936,1.73h5.523h5.523C24.255,7.117,26.14,6.577,27.116,5.388z
				 M11.771,4.387h-1.638c-3.069,0-3.738-0.602-3.841-0.727C6.258,3.619,6.19,3.551,6.25,3.249C6.294,3.128,6.87,2.706,8.209,2.706
				c0.749,0,1.589,0.139,2.43,0.397c0.436,0.134,0.849,0.296,1.236,0.51C11.816,3.862,11.78,4.121,11.771,4.387z M19.444,3.61
				c0.385-0.212,0.797-0.379,1.23-0.512c0.842-0.258,1.682-0.392,2.43-0.392c1.338,0,1.915,0.42,1.959,0.541
				c0.061,0.303-0.01,0.372-0.042,0.412c-0.103,0.125-0.773,0.727-3.841,0.727h-1.633C19.539,4.12,19.503,3.86,19.444,3.61z"/>
		</g>
	</g>
</g>
<g>
</g>
<g>
</g>
<g>
</g>
<g>
</g>
<g>
</g>
<g>
</g>
<g>
</g>
<g>
</g>
<g>
</g>
<g>
</g>
<g>
</g>
<g>
</g>
<g>
</g>
<g>
</g>
<g>
</g>
</symbol></svg>