<?xml version="1.0" encoding="iso-8859-1"?>
<!-- Generator: Adobe Illustrator 19.0.0, SVG Export Plug-In . SVG Version: 6.00 Build 0)  -->
<svg version="1.1" id="Layer_1" xmlns="http://www.w3.org/2000/svg" xmlns:xlink="http://www.w3.org/1999/xlink" x="0px" y="0px"
	 viewBox="0 0 318 406" style="enable-background:new 0 0 318 406;" xml:space="preserve">
<g id="&#x42D;&#x43B;&#x43B;&#x438;&#x43F;&#x441;_7">
	<g>
		<circle style="fill-rule:evenodd;clip-rule:evenodd;fill:#FF5548;" cx="17.5" cy="17.5" r="17.5"/>
	</g>
</g>
<g id="&#x41F;&#x440;&#x44F;&#x43C;&#x43E;&#x443;&#x433;&#x43E;&#x43B;&#x44C;&#x43D;&#x438;&#x43A;_x2C__&#x441;&#x43A;&#x440;&#x443;&#x433;&#x43B;._&#x443;&#x433;&#x43B;&#x44B;_1">
	<g>
		<path style="fill-rule:evenodd;clip-rule:evenodd;fill:#FFFFFF;" d="M309.427,403.214h0.209c0.346,0,0.653-0.349,0.685-0.77
			l0.381-5.124c0.022-0.298-0.19-0.535-0.472-0.535h-0.171c-0.283,0-0.54,0.237-0.574,0.535l-0.595,5.124
			C308.84,402.865,309.081,403.214,309.427,403.214z M306.5,403.214h0.209c0.346,0,0.627-0.288,0.627-0.643v-5.143
			c0-0.355-0.281-0.643-0.627-0.643H306.5c-0.346,0-0.627,0.288-0.627,0.643v5.143C305.873,402.926,306.153,403.214,306.5,403.214z
			 M311.936,403.214h0.209c0.346,0,0.692-0.281,0.771-0.63l1.174-5.143c0.083-0.362-0.138-0.656-0.492-0.656h-0.214
			c-0.355,0-0.708,0.294-0.788,0.656l-1.147,5.143C311.372,402.933,311.59,403.214,311.936,403.214z M299.059,397.442l1.227,5.143
			c0.083,0.348,0.444,0.63,0.806,0.63h0.218c0.362,0,0.59-0.281,0.509-0.63l-1.198-5.143c-0.084-0.362-0.453-0.656-0.824-0.656
			h-0.224C299.203,396.786,298.973,397.08,299.059,397.442z M316.85,393.571h-2.287c-0.003-0.063-0.019-0.122-0.052-0.17
			l-4.519-6.468c0.04-0.137,0.063-0.283,0.063-0.434c0-0.828-0.655-1.5-1.464-1.5s-1.464,0.672-1.464,1.5
			c0,0.828,0.655,1.5,1.464,1.5c0.038,0,0.074-0.003,0.111-0.006l3.897,5.577h-11.88l4.047-5.575c0.02,0.001,0.04,0.003,0.061,0.003
			c0.808,0,1.464-0.672,1.464-1.5c0-0.828-0.655-1.5-1.464-1.5c-0.808,0-1.464,0.672-1.464,1.5c0,0.16,0.025,0.315,0.071,0.46
			l-4.691,6.462c-0.031,0.043-0.046,0.094-0.051,0.15h-2.542c-0.635,0-1.15,0.528-1.15,1.179v0.214c0,0.499,0.303,0.923,0.73,1.095
			l2.197,7.37c0,0,0.807,2.572,3.764,2.572s10.455,0,10.455,0s2.27-0.031,3.345-3.429c0.922-2.914,1.8-5.87,2.031-6.654
			c0.288-0.214,0.478-0.56,0.478-0.953v-0.214C318,394.099,317.485,393.571,316.85,393.571z M313.818,402.357
			c-0.836,2.02-1.673,1.714-1.673,1.714s-9.081,0-10.664,0c-1.583,0-1.882-1.5-1.882-1.5l-1.882-6.214h18.191
			C315.909,396.357,314.654,400.337,313.818,402.357z M303.823,403.214h0.209c0.346,0,0.586-0.349,0.537-0.77l-0.595-5.124
			c-0.035-0.298-0.291-0.535-0.574-0.535h-0.171c-0.283,0-0.494,0.237-0.472,0.535l0.381,5.124
			C303.17,402.865,303.477,403.214,303.823,403.214z"/>
	</g>
</g>
<g>
</g>
<g>
</g>
<g>
</g>
<g>
</g>
<g>
</g>
<g>
</g>
<g>
</g>
<g>
</g>
<g>
</g>
<g>
</g>
<g>
</g>
<g>
</g>
<g>
</g>
<g>
</g>
<g>
</g>
</svg>
