<svg xmlns="http://www.w3.org/2000/svg" xmlns:xlink="http://www.w3.org/1999/xlink" preserveAspectRatio="xMidYMid" width="35" height="35" viewBox="0 0 35 35">
  <defs>
    <style>
      .cls-1 {
        fill: #ff5548;
      }

      .cls-2 {
        fill: #fff;
        fill-rule: evenodd;
      }
    </style>
  </defs>
  <g>
    <circle cx="17.5" cy="17.5" r="17.5" class="cls-1"/>
    <path d="M28.522,16.917 C28.290,17.701 27.413,20.658 26.491,23.571 C25.415,26.969 23.145,27.000 23.145,27.000 C23.145,27.000 15.648,27.000 12.691,27.000 C9.734,27.000 8.927,24.428 8.927,24.428 L6.730,17.059 C6.303,16.887 6.000,16.463 6.000,15.964 L6.000,15.750 C6.000,15.099 6.515,14.571 7.150,14.571 L9.692,14.571 C9.697,14.516 9.712,14.464 9.743,14.421 L14.434,7.960 C14.389,7.815 14.364,7.660 14.364,7.500 C14.364,6.671 15.019,6.000 15.827,6.000 C16.636,6.000 17.291,6.671 17.291,7.500 C17.291,8.328 16.636,9.000 15.827,9.000 C15.807,9.000 15.787,8.998 15.766,8.997 L11.719,14.571 L23.599,14.571 L19.702,8.994 C19.665,8.997 19.628,9.000 19.591,9.000 C18.783,9.000 18.127,8.328 18.127,7.500 C18.127,6.671 18.783,6.000 19.591,6.000 C20.399,6.000 21.054,6.671 21.054,7.500 C21.054,7.651 21.032,7.796 20.992,7.934 L25.511,14.402 C25.545,14.450 25.561,14.508 25.563,14.571 L27.850,14.571 C28.485,14.571 29.000,15.099 29.000,15.750 L29.000,15.964 C29.000,16.357 28.810,16.703 28.522,16.917 ZM8.718,17.357 L10.600,23.571 C10.600,23.571 10.899,25.071 12.482,25.071 C14.065,25.071 23.145,25.071 23.145,25.071 C23.145,25.071 23.982,25.377 24.818,23.357 C25.654,21.337 26.909,17.357 26.909,17.357 L8.718,17.357 ZM23.145,24.214 L22.936,24.214 C22.590,24.214 22.372,23.933 22.449,23.585 L23.596,18.442 C23.677,18.080 24.030,17.786 24.385,17.786 L24.599,17.786 C24.953,17.786 25.174,18.080 25.091,18.442 L23.916,23.585 C23.837,23.933 23.492,24.214 23.145,24.214 ZM20.636,24.214 L20.427,24.214 C20.081,24.214 19.840,23.865 19.889,23.444 L20.485,18.320 C20.519,18.023 20.776,17.786 21.059,17.786 L21.229,17.786 C21.512,17.786 21.724,18.023 21.702,18.320 L21.321,23.444 C21.290,23.865 20.983,24.214 20.636,24.214 ZM17.709,24.214 L17.500,24.214 C17.153,24.214 16.873,23.926 16.873,23.571 L16.873,18.428 C16.873,18.073 17.153,17.786 17.500,17.786 L17.709,17.786 C18.055,17.786 18.336,18.073 18.336,18.428 L18.336,23.571 C18.336,23.926 18.055,24.214 17.709,24.214 ZM15.032,24.214 L14.823,24.214 C14.477,24.214 14.170,23.865 14.139,23.444 L13.758,18.320 C13.736,18.023 13.948,17.786 14.230,17.786 L14.401,17.786 C14.683,17.786 14.940,18.023 14.975,18.320 L15.569,23.444 C15.618,23.865 15.378,24.214 15.032,24.214 ZM12.310,24.214 L12.092,24.214 C11.730,24.214 11.369,23.933 11.286,23.585 L10.059,18.442 C9.973,18.080 10.203,17.786 10.573,17.786 L10.797,17.786 C11.167,17.786 11.536,18.080 11.620,18.442 L12.819,23.585 C12.900,23.933 12.672,24.214 12.310,24.214 Z" class="cls-2"/>
  </g>
</svg>
