<?xml version="1.0" encoding="iso-8859-1"?>
<!-- Generator: Adobe Illustrator 19.0.0, SVG Export Plug-In . SVG Version: 6.00 Build 0)  -->
<svg version="1.1" id="Layer_1" xmlns="http://www.w3.org/2000/svg" xmlns:xlink="http://www.w3.org/1999/xlink" x="0px" y="0px"
	 viewBox="0 0 38.983 38.748" style="enable-background:new 0 0 38.983 38.748;" xml:space="preserve">
<g>
	<g>
		<path style="fill:#FFD02E;" d="M11.237,27.511c2.627,2.628,5.67,5.139,6.872,3.936c1.722-1.722,2.783-3.221,6.579-0.171
			c3.796,3.052,0.88,5.085-0.788,6.754c-1.925,1.925-9.1,0.101-16.192-6.99c-7.092-7.092-8.916-14.267-6.99-16.193
			c1.669-1.669,3.702-4.583,6.752-0.787c3.051,3.795,1.552,4.857-0.17,6.578C6.098,21.841,8.609,24.884,11.237,27.511z
			 M38.983,9.474c0,5.233-5.36,9.475-11.971,9.475c-0.661,0-1.305-0.054-1.937-0.135c-1.799,1.841-4.547,2.736-7.668,2.969
			c1.278-1.278,2.193-3.133,2.48-4.708c-2.936-1.727-4.847-4.484-4.847-7.601C15.04,4.242,20.4,0,27.011,0
			S38.983,4.241,38.983,9.474z M19.529,9.474c0,1.033,0.837,1.871,1.871,1.871c1.033,0,1.871-0.837,1.871-1.871
			S22.433,7.604,21.4,7.604C20.367,7.604,19.529,8.441,19.529,9.474z M28.882,9.474c0-1.033-0.837-1.871-1.871-1.871
			c-1.033,0-1.871,0.837-1.871,1.871s0.837,1.871,1.871,1.871C28.045,11.345,28.882,10.507,28.882,9.474z M34.494,9.474
			c0-1.033-0.837-1.871-1.871-1.871c-1.033,0-1.871,0.837-1.871,1.871s0.837,1.871,1.871,1.871
			C33.657,11.345,34.494,10.507,34.494,9.474z"/>
	</g>
</g>
<g>
</g>
<g>
</g>
<g>
</g>
<g>
</g>
<g>
</g>
<g>
</g>
<g>
</g>
<g>
</g>
<g>
</g>
<g>
</g>
<g>
</g>
<g>
</g>
<g>
</g>
<g>
</g>
<g>
</g>
</svg>
