<?xml version="1.0" encoding="iso-8859-1"?>
<!-- Generator: Adobe Illustrator 19.0.0, SVG Export Plug-In . SVG Version: 6.00 Build 0)  -->
<svg version="1.1" id="Layer_1" xmlns="http://www.w3.org/2000/svg" xmlns:xlink="http://www.w3.org/1999/xlink" x="0px" y="0px"
	 viewBox="0 0 998 75.003" style="enable-background:new 0 0 998 75.003;" xml:space="preserve">
<g id="&#x424;&#x438;&#x433;&#x443;&#x440;&#x430;_9_&#x43A;&#x43E;&#x43F;&#x438;&#x44F;_5">
	<g>
		<polygon style="fill-rule:evenodd;clip-rule:evenodd;fill:#33A0DB;" points="865.469,57.776 841.372,74.314 998,74.314 
			998,30.003 		"/>
	</g>
</g>
<g id="&#x424;&#x438;&#x433;&#x443;&#x440;&#x430;_9_&#x43A;&#x43E;&#x43F;&#x438;&#x44F;_4">
	<g>
		<polygon style="fill-rule:evenodd;clip-rule:evenodd;fill:#BB0418;" points="795.187,54.776 791.171,74.314 933.742,74.314 
			946,41.003 		"/>
	</g>
</g>
<g id="&#x424;&#x438;&#x433;&#x443;&#x440;&#x430;_9_&#x43A;&#x43E;&#x43F;&#x438;&#x44F;_3">
	<g>
		<polygon style="fill-rule:evenodd;clip-rule:evenodd;fill:#0A75AD;" points="719.885,48.818 616.471,57.776 579.322,74.314 
			735.95,74.314 		"/>
	</g>
</g>
<g id="&#x424;&#x438;&#x433;&#x443;&#x440;&#x430;_9_&#x43A;&#x43E;&#x43F;&#x438;&#x44F;">
	<g>
		<polygon style="fill-rule:evenodd;clip-rule:evenodd;fill:#BB0418;" points="281.127,14.363 155.624,67.423 153.616,74.314 
			288.155,74.314 		"/>
	</g>
</g>
<g id="&#x424;&#x438;&#x433;&#x443;&#x440;&#x430;_9_&#x43A;&#x43E;&#x43F;&#x438;&#x44F;_2">
	<g>
		<polygon style="fill-rule:evenodd;clip-rule:evenodd;fill:#0A75AD;" points="281.127,14.363 263.054,74.314 283.135,74.314 
			446.791,74.314 		"/>
	</g>
</g>
<g id="&#x424;&#x438;&#x433;&#x443;&#x440;&#x430;_8">
	<g>
		<polygon style="fill-rule:evenodd;clip-rule:evenodd;fill:#FF5548;" points="0,3.003 0,75.003 99,0.003 		"/>
	</g>
</g>
<g id="&#x424;&#x438;&#x433;&#x443;&#x440;&#x430;_10">
	<g>
		<path style="fill-rule:evenodd;clip-rule:evenodd;fill:#ED1E28;" d="M98,0.003c-0.355-0.355-71.895,30.898-71.895,30.898L0,74.314
			c0,0,44.183,0,88.856,0c45.677,0,91.868,0,91.868,0l101.406-59.951C282.131,14.363,98.361,0.364,98,0.003z"/>
	</g>
</g>
<g id="&#x424;&#x438;&#x433;&#x443;&#x440;&#x430;_17">
	<g>
		<polygon style="fill-rule:evenodd;clip-rule:evenodd;fill:#FF5548;" points="179.72,74.314 98,0.003 104.418,40.549 
			102.41,74.314 		"/>
	</g>
</g>
<g id="&#x424;&#x438;&#x433;&#x443;&#x440;&#x430;_10_&#x43A;&#x43E;&#x43F;&#x438;&#x44F;">
	<g>
		<polygon style="fill-rule:evenodd;clip-rule:evenodd;fill:#38AAE7;" points="280.123,14.363 426.489,74.314 577.654,74.314 
			717.877,48.818 		"/>
	</g>
</g>
<g id="&#x424;&#x438;&#x433;&#x443;&#x440;&#x430;_8_&#x43A;&#x43E;&#x43F;&#x438;&#x44F;">
	<g>
		<path style="fill-rule:evenodd;clip-rule:evenodd;fill:#FF5548;" d="M874,47.003l-169.115,0.125L685,75.003
			c0,0,205.524-0.01,206,0C891.111,75.005,874,47.003,874,47.003z"/>
	</g>
</g>
<g>
</g>
<g>
</g>
<g>
</g>
<g>
</g>
<g>
</g>
<g>
</g>
<g>
</g>
<g>
</g>
<g>
</g>
<g>
</g>
<g>
</g>
<g>
</g>
<g>
</g>
<g>
</g>
<g>
</g>
</svg>
