<?xml version="1.0" encoding="iso-8859-1"?>
<!-- Generator: Adobe Illustrator 19.0.0, SVG Export Plug-In . SVG Version: 6.00 Build 0)  -->
<svg version="1.1" id="Layer_1" xmlns="http://www.w3.org/2000/svg" xmlns:xlink="http://www.w3.org/1999/xlink" x="0px" y="0px"
	 viewBox="0 0 79.533 117.348" style="enable-background:new 0 0 79.533 117.348;" xml:space="preserve">
<g id="&#x424;&#x438;&#x433;&#x443;&#x440;&#x430;_15">
	<g>
		<path style="fill:#C6C6C6;" d="M33.194,82.877c0.369,0,0.545,0.136,0.644,0.239c0.223,0.229,0.589,0.87,0.54,2.584
			c-0.002,0.079-0.006,0.158-0.01,0.239l-1.601-3.012C32.907,82.896,33.053,82.877,33.194,82.877 M35.16,91.69l6.106,11.484
			c-0.322,1.011-0.238,2.096,0.248,2.986c0.545,0.997,1.529,1.64,2.771,1.812l1.937,0.267l-0.918-1.727l-1.797-3.379
			c0.158-0.207,0.38-0.416,0.688-0.569c0.485-0.24,1.012-0.367,1.526-0.367c0.497,0,1.209,0.125,1.777,0.72
			c0.699,0.732,1.027,2.007,0.949,3.686c-0.114,2.449-2.246,4.297-4.958,4.297c-1.508,0-4.461-0.585-7.303-4.505
			C32.438,101.224,33.819,96.378,35.16,91.69 M33.194,81.877c-0.944,0-1.836,0.531-1.836,0.531l3.503,6.589
			c0.281-1.138,0.487-2.23,0.517-3.269C35.467,82.599,34.295,81.877,33.194,81.877L33.194,81.877z M34.861,88.997
			c-1.294,5.23-4.229,11.439,0.517,17.985c2.551,3.519,5.545,4.918,8.113,4.918c3.248,0,5.817-2.237,5.957-5.25
			c0.187-4.009-1.754-5.453-3.725-5.453c-0.682,0-1.367,0.173-1.97,0.471c-0.651,0.323-1.114,0.846-1.389,1.44l2.059,3.873
			c-2.178-0.3-2.775-2.33-2.059-3.873L34.861,88.997L34.861,88.997z"/>
	</g>
</g>
<g id="&#x424;&#x438;&#x433;&#x443;&#x440;&#x430;_14">
	<g>
		<path style="fill:#D1D1D1;" d="M40.042,72.706c0.938,3.561,2.057,9.952,0.397,16.427c-2.33,9.088-6.97,12.313-10.235,12.313
			c-0.338,0-0.674-0.032-1-0.095c-2.019-0.393-3.037-1.872-3.128-3.081c-0.033-0.445,0.023-1.528,1.262-1.969
			c0.468-0.167,0.892-0.251,1.261-0.251c1.095,0,1.418,0.785,1.467,0.927l0.913,3.016l0.993-2.99L40.042,72.706 M40.067,69.456
			l-9.045,27.231c0,0-0.496-1.637-2.424-1.637c-0.45,0-0.978,0.089-1.596,0.309c-3.266,1.162-2.261,6.143,2.01,6.974
			c0.388,0.075,0.786,0.114,1.191,0.114c4.059,0,8.843-3.856,11.204-13.065C44.003,79.253,40.067,69.456,40.067,69.456
			L40.067,69.456z"/>
	</g>
</g>
<g id="&#x42D;&#x43B;&#x43B;&#x438;&#x43F;&#x441;_6_&#x43A;&#x43E;&#x43F;&#x438;&#x44F;_3">
	<g>
		<path style="fill-rule:evenodd;clip-rule:evenodd;fill:#FFAC23;" d="M42.566,53.998C39.4,39.698,27.478,29.559,15.939,31.352
			C4.399,33.144-2.389,46.189,0.778,60.489c3.166,14.299,15.088,24.438,26.628,22.646c0.78-0.121,1.537-0.298,2.272-0.519
			c-0.406,0.669-1.06,1.953-0.664,2.746c0.555,1.109,0.911,1.398,2.007,1.003c1.096-0.395,0.508-0.065,1.075-0.793
			c0.566-0.729,0.36-0.68,1.075-0.793c0.715-0.114,1.478-1.229,0.743-1.791c-0.735-0.561-0.635-0.29-0.869-0.601
			c-0.127-0.169-0.41-0.546-0.643-0.856C40.806,77.274,45.243,66.085,42.566,53.998z"/>
	</g>
</g>
<g id="&#x42D;&#x43B;&#x43B;&#x438;&#x43F;&#x441;_6_&#x43A;&#x43E;&#x43F;&#x438;&#x44F;_3_9_">
	<g>
		<path style="fill-rule:evenodd;clip-rule:evenodd;fill:#FFD02E;" d="M37.125,52.769C34.861,40.874,24.959,32.74,15.009,34.601
			C5.058,36.462-1.173,47.613,1.091,59.508c2.264,11.895,12.165,20.029,22.116,18.168S39.388,64.663,37.125,52.769z"/>
	</g>
</g>
<g id="&#x42D;&#x43B;&#x43B;&#x438;&#x43F;&#x441;_6_&#x43A;&#x43E;&#x43F;&#x438;&#x44F;_3_7_">
	<g>
		<path style="fill-rule:evenodd;clip-rule:evenodd;fill:#FBA01C;" d="M40.78,53.088c-0.932-3.298-2.368-6.286-4.167-8.861
			c0.817,1.721,1.488,3.569,1.983,5.532c3.277,13.013-2.187,25.819-11.684,30.101c-2.267,1.023-4.607,1.497-6.924,1.486
			c3.529,1.112,7.233,1.066,10.695-0.371C39.528,77.309,44.273,65.449,40.78,53.088z"/>
	</g>
</g>
<g id="&#x424;&#x438;&#x433;&#x443;&#x440;&#x430;_12_&#x43A;&#x43E;&#x43F;&#x438;&#x44F;" style="opacity:0.4392;">
	<g>
		<path style="fill-rule:evenodd;clip-rule:evenodd;fill:#FFFFFF;" d="M14.222,41.212c-2.4-3.528-10.867-0.01-11.084,8.597
			c-0.217,8.607,2.87,11.048,3.911,12.433c0,0-2.515-5.348-0.167-10.229C9.231,47.133,16.622,44.74,14.222,41.212z"/>
	</g>
</g>
<g id="&#x42D;&#x43B;&#x43B;&#x438;&#x43F;&#x441;_6_&#x43A;&#x43E;&#x43F;&#x438;&#x44F;_3_3_">
	<g>
		<path style="fill-rule:evenodd;clip-rule:evenodd;fill:#43C1BD;" d="M40.875,0.411c-11.392-2.557-22.558,7.083-24.94,21.531
			c-2.382,14.448,4.922,28.234,16.314,30.79c0.77,0.173,1.539,0.285,2.305,0.349c-0.626,0.473-1.713,1.427-1.639,2.31
			c0.103,1.233,0.326,1.632,1.491,1.666c1.165,0.034,0.497,0.126,1.294-0.344c0.798-0.47,0.587-0.5,1.294-0.344
			c0.707,0.156,1.832-0.602,1.357-1.392c-0.474-0.791-0.483-0.502-0.584-0.876c-0.055-0.203-0.178-0.658-0.279-1.031
			c9.397-0.88,17.687-9.655,19.7-21.868C59.571,16.753,52.267,2.968,40.875,0.411z"/>
	</g>
</g>
<g id="&#x42D;&#x43B;&#x43B;&#x438;&#x43F;&#x441;_6_&#x43A;&#x43E;&#x43F;&#x438;&#x44F;_3_4_">
	<g>
		<path style="fill-rule:evenodd;clip-rule:evenodd;fill:#6ECBD3;" d="M38.801,3.09c-9.941-1.912-19.884,6.172-22.21,18.055
			c-2.325,11.883,3.848,23.066,13.789,24.977s19.884-6.172,22.21-18.055C54.915,16.184,48.741,5.002,38.801,3.09z"/>
	</g>
</g>
<g id="&#x42D;&#x43B;&#x43B;&#x438;&#x43F;&#x441;_6_&#x43A;&#x43E;&#x43F;&#x438;&#x44F;_3_5_">
	<g>
		<path style="fill-rule:evenodd;clip-rule:evenodd;fill:#36B0BB;" d="M55.295,19.942c0.118,1.898,0.054,3.862-0.217,5.867
			c-1.8,13.293-11.647,23.195-22.068,23.7c-2.488,0.121-4.839-0.295-6.988-1.153c2.866,2.325,6.325,3.637,10.078,3.569
			c9.585-0.171,18.411-9.456,19.768-22.222C56.229,26.296,56.008,22.993,55.295,19.942z"/>
	</g>
</g>
<g id="&#x424;&#x438;&#x433;&#x443;&#x440;&#x430;_12_&#x43A;&#x43E;&#x43F;&#x438;&#x44F;_1_" style="opacity:0.4392;">
	<g>
		<path style="fill-rule:evenodd;clip-rule:evenodd;fill:#FFFFFF;" d="M35.608,8.947c-0.917-4.157-10.096-3.985-13.503,3.934
			c-3.406,7.92-1.446,11.318-0.995,12.986c0,0-0.345-5.891,3.654-9.567C28.764,12.623,36.525,13.104,35.608,8.947z"/>
	</g>
</g>
<g id="&#x42D;&#x43B;&#x43B;&#x438;&#x43F;&#x441;_6_&#x43A;&#x43E;&#x43F;&#x438;&#x44F;_2">
	<g>
		<path style="fill-rule:evenodd;clip-rule:evenodd;fill:#FA202B;" d="M68.825,17.402c-10.335-5.395-23.639,1.048-29.716,14.391
			c-6.077,13.343-2.625,28.534,7.71,33.929c0.699,0.365,1.412,0.671,2.135,0.929c-0.729,0.296-2.027,0.939-2.187,1.81
			c-0.223,1.218-0.112,1.66,1.005,1.992s0.447,0.249,1.34,0c0.893-0.249,0.698-0.332,1.34,0s1.926-0.111,1.675-0.996
			c-0.251-0.885-0.335-0.609-0.335-0.996c0-0.21,0-0.681,0-1.068c9.306,1.564,19.606-4.783,24.743-16.062
			C82.611,37.987,79.16,22.797,68.825,17.402z"/>
	</g>
</g>
<g id="&#x42D;&#x43B;&#x43B;&#x438;&#x43F;&#x441;_6">
	<g>
		<path style="fill-rule:evenodd;clip-rule:evenodd;fill:#FF5548;" d="M66.121,19.457c-9.102-4.399-20.818,0.854-26.17,11.734
			c-5.352,10.88-2.312,23.267,6.79,27.666c9.102,4.399,20.818-0.854,26.17-11.734C78.263,36.243,75.223,23.856,66.121,19.457z"/>
	</g>
</g>
<g id="&#x42D;&#x43B;&#x43B;&#x438;&#x43F;&#x441;_6_&#x43A;&#x43E;&#x43F;&#x438;&#x44F;">
	<g>
		<path style="fill-rule:evenodd;clip-rule:evenodd;fill:#E8051F;" d="M75.905,45.58c-5.213,12.377-17.311,19.412-27.508,17.223
			c-2.435-0.522-4.597-1.528-6.448-2.909c2.16,2.982,5.159,5.138,8.8,6.035c9.302,2.297,20.254-4.404,24.901-16.386
			c1.239-3.197,1.889-6.444,1.997-9.574C77.266,41.833,76.691,43.713,75.905,45.58z"/>
	</g>
</g>
<g id="&#x424;&#x438;&#x433;&#x443;&#x440;&#x430;_12" style="opacity:0.4392;">
	<g>
		<path style="fill-rule:evenodd;clip-rule:evenodd;fill:#FFFFFF;" d="M47.437,24.625c-5.36,6.775-4.355,10.56-4.355,12.287
			c0,0,1.206-5.778,6.03-8.302c4.824-2.524,12.194-0.066,12.395-4.317C61.708,20.042,52.797,17.851,47.437,24.625z"/>
	</g>
</g>
<g id="&#x424;&#x438;&#x433;&#x443;&#x440;&#x430;_13">
	<g>
		<path style="fill:#BABABA;" d="M53.35,69.449c1.743,1.425,3.852,4.091,3.806,8.632c-0.006,0.588-0.033,1.174-0.08,1.758
			L53.35,69.449 M57.509,86.968l8.972,25.015c-0.321,0.83-1.756,3.489-7.135,4.304c-0.266,0.04-0.521,0.061-0.756,0.061
			c-0.908,0-1.555-0.286-2.035-0.901c-1.057-1.353-1.818-4.972,0.562-14.534c1.102-4.428,0.297-7.38-2.462-8.975
			C55.778,90.626,56.756,88.918,57.509,86.968 M51.457,67.132l5.988,16.694c0.432-1.772,0.692-3.703,0.712-5.735
			C58.241,69.705,51.457,67.132,51.457,67.132L51.457,67.132z M57.445,83.826c-0.91,3.734-2.595,6.748-4.493,8.431
			c2.898,1.033,4.491,3.21,3.195,8.416c-1.52,6.105-3.574,16.676,2.444,16.676c0.284,0,0.586-0.023,0.906-0.072
			c7.119-1.079,8.04-5.313,8.04-5.313L57.445,83.826L57.445,83.826z M49.603,91.593c-1.444,0-2.178,0.58-2.178,1.139
			C47.425,92.173,48.159,91.593,49.603,91.593L49.603,91.593z M47.425,92.732c0.001,0.519,0.635,1.019,1.924,1.019
			C48.061,93.751,47.426,93.251,47.425,92.732L47.425,92.732z"/>
	</g>
</g>
<g>
</g>
<g>
</g>
<g>
</g>
<g>
</g>
<g>
</g>
<g>
</g>
<g>
</g>
<g>
</g>
<g>
</g>
<g>
</g>
<g>
</g>
<g>
</g>
<g>
</g>
<g>
</g>
<g>
</g>
</svg>
