<svg xmlns="http://www.w3.org/2000/svg" xmlns:xlink="http://www.w3.org/1999/xlink" preserveAspectRatio="xMidYMid" width="35" height="35" viewBox="0 0 35 35">
  <defs>
    <style>
      .cls-1 {
        fill: #ff5548;
      }

      .cls-2 {
        fill: #fff;
        fill-rule: evenodd;
      }
    </style>
  </defs>
  <g>
    <circle cx="17.5" cy="17.5" r="17.5" class="cls-1"/>
    <path d="M15.571,18.303 C15.571,18.303 17.075,21.061 17.930,21.687 C18.785,22.313 19.390,22.768 20.628,21.954 C21.866,21.139 23.041,20.206 24.522,21.458 C26.002,22.710 27.289,24.697 27.340,25.389 C27.391,26.082 26.951,26.859 25.191,27.599 C23.430,28.339 20.983,28.714 18.578,27.460 C16.173,26.205 14.412,24.101 12.573,21.435 C10.735,18.769 9.682,15.851 9.514,12.540 C9.346,9.230 11.549,7.464 12.872,6.659 C14.195,5.854 15.446,5.171 16.240,6.422 C17.033,7.673 18.072,9.951 18.006,10.871 C17.941,11.791 17.368,12.519 16.565,12.859 C15.762,13.198 14.206,13.388 14.286,14.769 C14.365,16.150 15.571,18.303 15.571,18.303 Z" class="cls-2"/>
  </g>
</svg>
