<?xml version="1.0" encoding="iso-8859-1"?>
<!-- Generator: Adobe Illustrator 19.0.0, SVG Export Plug-In . SVG Version: 6.00 Build 0)  -->
<svg version="1.1" id="Layer_1" xmlns="http://www.w3.org/2000/svg" xmlns:xlink="http://www.w3.org/1999/xlink" x="0px" y="0px"
	 viewBox="0 0 35 35" style="enable-background:new 0 0 35 35;" xml:space="preserve">
<g id="&#x42D;&#x43B;&#x43B;&#x438;&#x43F;&#x441;_7_&#x43A;&#x43E;&#x43F;&#x438;&#x44F;">
	<g>
		<circle style="fill-rule:evenodd;clip-rule:evenodd;fill:#FF5548;" cx="17.5" cy="17.5" r="17.5"/>
	</g>
</g>
<g id="&#x424;&#x438;&#x433;&#x443;&#x440;&#x430;_16">
	<g>
		<path style="fill-rule:evenodd;clip-rule:evenodd;fill:#FFFFFF;" d="M24.522,21.458c-1.481-1.252-2.656-0.319-3.894,0.495
			s-1.843,0.359-2.698-0.267c-0.855-0.626-2.359-3.384-2.359-3.384s-1.206-2.153-1.285-3.534c-0.079-1.381,1.476-1.571,2.279-1.911
			c0.803-0.34,1.376-1.067,1.441-1.987c0.065-0.92-0.973-3.198-1.766-4.449c-0.793-1.251-2.045-0.568-3.368,0.237
			C11.549,7.464,9.346,9.23,9.514,12.54c0.168,3.31,1.221,6.229,3.059,8.894c1.839,2.666,3.599,4.77,6.005,6.025
			c2.405,1.255,4.852,0.879,6.613,0.139c1.761-0.74,2.201-1.517,2.15-2.21C27.289,24.697,26.002,22.71,24.522,21.458z"/>
	</g>
</g>
<g>
</g>
<g>
</g>
<g>
</g>
<g>
</g>
<g>
</g>
<g>
</g>
<g>
</g>
<g>
</g>
<g>
</g>
<g>
</g>
<g>
</g>
<g>
</g>
<g>
</g>
<g>
</g>
<g>
</g>
</svg>
