<?xml version="1.0" encoding="iso-8859-1"?>
<!-- Generator: Adobe Illustrator 19.0.0, SVG Export Plug-In . SVG Version: 6.00 Build 0)  -->
<svg version="1.1" id="Layer_1" xmlns="http://www.w3.org/2000/svg" xmlns:xlink="http://www.w3.org/1999/xlink" x="0px" y="0px"
	 viewBox="0 0 33.66 6169.122" style="enable-background:new 0 0 33.66 6169.122;" xml:space="preserve">
<g>
	<g>
		<g>
			<path style="fill:#FFD02E;" d="M20.421,6169.122h8.621c1.242,0,2.243-1.021,2.243-2.265v-18.514H20.421V6169.122z"/>
			<path style="fill:#FFD02E;" d="M2.375,6166.857c0,1.243,1.002,2.265,2.244,2.265h8.619v-20.777H2.375V6166.857z"/>
			<path style="fill:#FFD02E;" d="M31.415,6140.33H20.421v6.648h10.994c1.242,0,2.245-1.021,2.245-2.263v-2.111
				C33.659,6141.362,32.656,6140.33,31.415,6140.33z"/>
			<path style="fill:#FFD02E;" d="M0,6142.604v2.111c0,1.242,1.005,2.263,2.247,2.263h10.992v-6.648H2.247
				C1.005,6140.33,0,6141.362,0,6142.604z"/>
			<path style="fill:#FFD02E;" d="M27.116,5.388c0.417-0.51,0.862-1.373,0.605-2.664C27.386,1.043,25.617,0,23.104,0
				c-1.029,0-2.114,0.173-3.225,0.514c-0.696,0.214-1.343,0.513-1.933,0.858c-0.397-0.289-0.851-0.504-1.342-0.627
				c-0.303-0.085-0.621-0.137-0.947-0.151c-0.336,0.014-0.662,0.069-0.972,0.159c-0.48,0.124-0.923,0.337-1.313,0.621
				c-0.592-0.345-1.24-0.645-1.937-0.859c-1.111-0.341-2.196-0.514-3.225-0.514c-2.513,0-4.281,1.043-4.616,2.723
				c-0.257,1.29,0.187,2.154,0.605,2.663c0.976,1.189,2.862,1.73,5.936,1.73h5.523h5.523C24.255,7.117,26.14,6.577,27.116,5.388z
				 M11.771,4.387h-1.638c-3.069,0-3.738-0.602-3.841-0.727C6.258,3.619,6.19,3.551,6.25,3.249C6.294,3.128,6.87,2.706,8.209,2.706
				c0.749,0,1.589,0.139,2.43,0.397c0.436,0.134,0.849,0.296,1.236,0.51C11.816,3.862,11.78,4.121,11.771,4.387z M19.444,3.61
				c0.385-0.212,0.797-0.379,1.23-0.512c0.842-0.258,1.682-0.392,2.43-0.392c1.338,0,1.915,0.42,1.959,0.541
				c0.061,0.303-0.01,0.372-0.042,0.412c-0.103,0.125-0.773,0.727-3.841,0.727h-1.633C19.539,4.12,19.503,3.86,19.444,3.61z"/>
		</g>
	</g>
</g>
<g>
</g>
<g>
</g>
<g>
</g>
<g>
</g>
<g>
</g>
<g>
</g>
<g>
</g>
<g>
</g>
<g>
</g>
<g>
</g>
<g>
</g>
<g>
</g>
<g>
</g>
<g>
</g>
<g>
</g>
</svg>
